HIERARCHY
ROOT Hips
{
  OFFSET -21.6994 31.6921 0
  CHANNELS 6 Xposition Yposition Zposition Zrotation Xrotation Yrotation
  JOINT Bip01_Pelvis
  {
    OFFSET 0 0 0
    CHANNELS 6 Xposition Yposition Zposition Zrotation Xrotation Yrotation
    JOINT BN_Tail_01
    {
      OFFSET -7.25226 -1.74978 0
      CHANNELS 6 Xposition Yposition Zposition Zrotation Xrotation Yrotation
      JOINT BN_Tail_02
      {
        OFFSET 15.788 0 0
        CHANNELS 6 Xposition Yposition Zposition Zrotation Xrotation Yrotation
        JOINT BN_Tail_03
        {
          OFFSET 16.0015 0 0
          CHANNELS 6 Xposition Yposition Zposition Zrotation Xrotation Yrotation
          JOINT BN_Tail_04
          {
            OFFSET 16.1689 0 0
            CHANNELS 6 Xposition Yposition Zposition Zrotation Xrotation Yrotation
            End Site
            {
              OFFSET 0 0 0
            }
          }
        }
      }
    }
    JOINT Bip01_Spine
    {
      OFFSET 6.38383 2.70859 0.585432
      CHANNELS 6 Xposition Yposition Zposition Zrotation Xrotation Yrotation
      JOINT BN_Mane_02
      {
        OFFSET 6.12662 8.45826 0
        CHANNELS 6 Xposition Yposition Zposition Zrotation Xrotation Yrotation
        End Site
        {
          OFFSET 0 0 0
        }
      }
      JOINT Bip01_R_Thigh
      {
        OFFSET -7.04074 -2.18223 -5.47025
        CHANNELS 6 Xposition Yposition Zposition Zrotation Xrotation Yrotation
        JOINT Bip01_R_Calf
        {
          OFFSET 13.6591 0 0
          CHANNELS 6 Xposition Yposition Zposition Zrotation Xrotation Yrotation
          JOINT Bip01_R_HorseLink
          {
            OFFSET 9.07516 0 0
            CHANNELS 6 Xposition Yposition Zposition Zrotation Xrotation Yrotation
            JOINT Bip01_R_Foot
            {
              OFFSET 8.13856 0 0
              CHANNELS 6 Xposition Yposition Zposition Zrotation Xrotation Yrotation
              JOINT Bip01_R_Toe0
              {
                OFFSET 3.79737 6.30086 0
                CHANNELS 6 Xposition Yposition Zposition Zrotation Xrotation Yrotation
                JOINT Bip01_R_Toe0Nub
                {
                  OFFSET 0.838764 0 0
                  CHANNELS 6 Xposition Yposition Zposition Zrotation Xrotation Yrotation
                  End Site
                  {
                    OFFSET 0 0 0
                  }
                }
              }
            }
          }
        }
      }
      JOINT Bip01_L_Thigh
      {
        OFFSET -6.18667 -2.14873 5.3508
        CHANNELS 6 Xposition Yposition Zposition Zrotation Xrotation Yrotation
        JOINT Bip01_L_Calf
        {
          OFFSET 13.6591 0 0
          CHANNELS 6 Xposition Yposition Zposition Zrotation Xrotation Yrotation
          JOINT Bip01_L_HorseLink
          {
            OFFSET 9.07515 0 0
            CHANNELS 6 Xposition Yposition Zposition Zrotation Xrotation Yrotation
            JOINT Bip01_L_Foot
            {
              OFFSET 8.13856 0 0
              CHANNELS 6 Xposition Yposition Zposition Zrotation Xrotation Yrotation
              JOINT Bip01_L_Toe0
              {
                OFFSET 3.79737 6.30086 0
                CHANNELS 6 Xposition Yposition Zposition Zrotation Xrotation Yrotation
                JOINT Bip01_L_Toe0Nub
                {
                  OFFSET 0.838764 0 0
                  CHANNELS 6 Xposition Yposition Zposition Zrotation Xrotation Yrotation
                  End Site
                  {
                    OFFSET 0 0 0
                  }
                }
              }
            }
          }
        }
      }
      JOINT Bip01_Spine1
      {
        OFFSET 12.1687 -0.0105438 0
        CHANNELS 6 Xposition Yposition Zposition Zrotation Xrotation Yrotation
        JOINT BN_Mane_R_01
        {
          OFFSET -0.157498 5.09008 -6.54008
          CHANNELS 6 Xposition Yposition Zposition Zrotation Xrotation Yrotation
          End Site
          {
            OFFSET 0 0 0
          }
        }
        JOINT BN_Mane_R_02
        {
          OFFSET -0.1575 5.09007 6.54
          CHANNELS 6 Xposition Yposition Zposition Zrotation Xrotation Yrotation
          End Site
          {
            OFFSET 0 0 0
          }
        }
        JOINT BN_Mane_01
        {
          OFFSET 8.29709 8.50414 0
          CHANNELS 6 Xposition Yposition Zposition Zrotation Xrotation Yrotation
          End Site
          {
            OFFSET 0 0 0
          }
        }
        JOINT Bip01_Spine2
        {
          OFFSET 13.2802 -0.0100708 1.51992e-005
          CHANNELS 6 Xposition Yposition Zposition Zrotation Xrotation Yrotation
          JOINT Bip01_Neck
          {
            OFFSET 12.4891 -6.66662 0
            CHANNELS 6 Xposition Yposition Zposition Zrotation Xrotation Yrotation
            JOINT Bip01_R_Clavicle
            {
              OFFSET -7.4542 -2.82621 -1.17874
              CHANNELS 6 Xposition Yposition Zposition Zrotation Xrotation Yrotation
              JOINT Bip01_R_UpperArm
              {
                OFFSET 13.2557 0 0
                CHANNELS 6 Xposition Yposition Zposition Zrotation Xrotation Yrotation
                JOINT Bip01_R_Forearm
                {
                  OFFSET 12.8897 0 0
                  CHANNELS 6 Xposition Yposition Zposition Zrotation Xrotation Yrotation
                  JOINT Bip01_R_Hand
                  {
                    OFFSET 11.2622 0 0
                    CHANNELS 6 Xposition Yposition Zposition Zrotation Xrotation Yrotation
                    JOINT Bip01_R_Finger0
                    {
                      OFFSET 3.98015 -0.208661 -0.0949803
                      CHANNELS 6 Xposition Yposition Zposition Zrotation Xrotation Yrotation
                      JOINT Bip01_R_Finger0Nub
                      {
                        OFFSET 6.57561 0 0
                        CHANNELS 6 Xposition Yposition Zposition Zrotation Xrotation Yrotation
                        End Site
                        {
                          OFFSET 0 0 0
                        }
                      }
                    }
                  }
                }
              }
            }
            JOINT Bip01_L_Clavicle
            {
              OFFSET -7.4541 -2.82679 1.17708
              CHANNELS 6 Xposition Yposition Zposition Zrotation Xrotation Yrotation
              JOINT Bip01_L_UpperArm
              {
                OFFSET 13.2558 0 0
                CHANNELS 6 Xposition Yposition Zposition Zrotation Xrotation Yrotation
                JOINT Bip01_L_Forearm
                {
                  OFFSET 12.8897 0 0
                  CHANNELS 6 Xposition Yposition Zposition Zrotation Xrotation Yrotation
                  JOINT Bip01_L_Hand
                  {
                    OFFSET 11.2622 0 0
                    CHANNELS 6 Xposition Yposition Zposition Zrotation Xrotation Yrotation
                    JOINT Bip01_L_Finger0
                    {
                      OFFSET 3.98014 -0.20866 0.0949764
                      CHANNELS 6 Xposition Yposition Zposition Zrotation Xrotation Yrotation
                      JOINT Bip01_L_Finger0Nub
                      {
                        OFFSET 6.57562 0 0
                        CHANNELS 6 Xposition Yposition Zposition Zrotation Xrotation Yrotation
                        End Site
                        {
                          OFFSET 0 0 0
                        }
                      }
                    }
                  }
                }
              }
            }
            JOINT Bip01_Neck1
            {
              OFFSET 4.19352 -0.00332451 0
              CHANNELS 6 Xposition Yposition Zposition Zrotation Xrotation Yrotation
              JOINT Bip01_Head
              {
                OFFSET 4.17604 0.298252 0
                CHANNELS 6 Xposition Yposition Zposition Zrotation Xrotation Yrotation
                JOINT BN_Eye_R_01
                {
                  OFFSET 6.53258 -3.90694 -2.55361
                  CHANNELS 6 Xposition Yposition Zposition Zrotation Xrotation Yrotation
                  End Site
                  {
                    OFFSET 0 0 0
                  }
                }
                JOINT BN_Eye_L_01
                {
                  OFFSET 6.5326 -3.90694 2.55371
                  CHANNELS 6 Xposition Yposition Zposition Zrotation Xrotation Yrotation
                  End Site
                  {
                    OFFSET 0 0 0
                  }
                }
                JOINT BN_Ear_R_01
                {
                  OFFSET 1.75934 -4.1584 -4.45634
                  CHANNELS 6 Xposition Yposition Zposition Zrotation Xrotation Yrotation
                  End Site
                  {
                    OFFSET 0 0 0
                  }
                }
                JOINT BN_Ear_L_01
                {
                  OFFSET 1.75933 -4.15841 4.45616
                  CHANNELS 6 Xposition Yposition Zposition Zrotation Xrotation Yrotation
                  End Site
                  {
                    OFFSET 0 0 0
                  }
                }
                JOINT BN_Beard_L_01
                {
                  OFFSET 11.2964 -1.06183 2.32054
                  CHANNELS 6 Xposition Yposition Zposition Zrotation Xrotation Yrotation
                  End Site
                  {
                    OFFSET 0 0 0
                  }
                }
                JOINT BN_Beard_R_01
                {
                  OFFSET 11.2964 -1.06182 -2.32036
                  CHANNELS 6 Xposition Yposition Zposition Zrotation Xrotation Yrotation
                  End Site
                  {
                    OFFSET 0 0 0
                  }
                }
                JOINT BN_Mouth_0
                {
                  OFFSET 1.3149 1.30001 0
                  CHANNELS 6 Xposition Yposition Zposition Zrotation Xrotation Yrotation
                  End Site
                  {
                    OFFSET 0 0 0
                  }
                }
                JOINT Bip01_HeadNub
                {
                  OFFSET 12.6869 0 0
                  CHANNELS 6 Xposition Yposition Zposition Zrotation Xrotation Yrotation
                  End Site
                  {
                    OFFSET 0 0 0
                  }
                }
              }
            }
          }
        }
      }
    }
  }
}
MOTION
Frames:	4
Frame Time:	0.0333333
-30.2956 7.67337 0 176.373 -22.8909 -88.9099 0 0 1.90735e-006 -105.354 -4.04101 -86.8283 -7.25225 -1.74978 -4.76837e-007 -27.1724 -4.69981 -166.614 15.788 0 -1.90735e-006 12.4819 18.1066 -11.1531 16.0015 1.90735e-006 -9.53674e-007 35.14 -21.5871 6.28651 16.1689 -3.8147e-006 -2.38419e-007 36.3023 -17.012 -1.65715 6.52909 2.15392 1.08511 1.79155 -16.8203 3.79045 6.12663 8.45827 4.76837e-007 -88.9944 -0.0320435 -179.967 -6.12942 0.0194745 -7.21877 -97.6498 -13.9692 -155.06 13.6591 1.90735e-006 -1.90735e-006 -67.1035 4.36162e-006 1.27604e-005 9.07515 1.43051e-006 0 91.8108 -9.28831e-007 1.95235e-006 8.13856 0 0 -73.5822 -7.89698 0.221912 3.79737 6.30085 0 89.3797 1.34773e-005 -3.64436e-006 0.838767 0 0 -1.66252e-006 9.14303e-006 -5.29144e-007 -6.81636 -3.12193 3.14874 -86.0558 -3.17195 -170.87 13.6591 -1.90735e-006 -8.88178e-016 -103.271 -1.2648e-006 -1.7636e-005 9.07515 -1.90735e-006 8.88178e-016 108.705 5.29939e-005 -4.97337e-006 8.13856 3.8147e-006 4.76837e-007 -51.4635 -7.43387 -10.6603 3.79738 6.30085 -9.53674e-007 93.8859 -6.43434e-006 5.04852e-006 0.838762 3.8147e-006 -4.76837e-007 -179.96 7.18515e-005 1.7512e-005 12.1684 -0.0102463 -0.00240564 -5.93288 13.1432 5.76873 -0.15749 5.09008 -6.54008 -92.7406 -0.022027 -167.965 -0.157495 5.09007 6.54 87.255 -0.000394037 12.0139 8.2971 8.50414 1.77636e-015 -91.651 -0.0227814 -179.978 13.2807 -0.0100126 -0.00156212 -5.95685 8.83686 -13.1499 12.4895 -6.66661 0.000221252 2.5586 -3.82057 7.41581 -7.51061 -1.81252 -2.29058 -161.005 -70.9988 134.645 13.2557 9.53674e-007 -4.76837e-007 71.4412 46.3903 -105.895 12.8897 0 0 -80.2777 -1.46604e-006 -3.96278e-006 11.2623 1.90735e-006 -2.86102e-006 136.834 50.9208 -168.836 3.98016 -0.208656 -0.0949727 11.0954 28.4539 19.4595 6.57561 3.55271e-015 1.90735e-006 179.96 1.76901e-005 -9.53689e-006 -7.81403 -1.96963 0.040338 162.851 63.1375 -55.3857 13.2557 8.88178e-016 1.19209e-007 -89.9061 -65.8986 -58.1439 12.8897 2.83122e-007 0 -41.455 7.44692e-006 9.81564e-006 11.2623 -3.55271e-015 0 -41.2187 -11.6648 -4.8163 3.98015 -0.208662 0.0949781 17.7442 -47.2146 17.3856 6.57562 -1.90735e-006 3.8147e-006 -2.14837e-007 1.03632e-005 -2.45843e-007 4.1934 -0.00320053 -0.000843048 -7.61144 14.6216 -11.2038 4.17605 0.298254 0 36.1993 1.45847 -11.0888 6.53259 -3.90693 -2.55362 133.025 18.1401 163.594 6.53259 -3.90695 2.55371 -46.9761 18.1112 -16.4184 1.75935 -4.1584 -4.45634 24.7931 -39.7306 142.462 1.75933 -4.1584 4.45616 -155.196 -39.7317 -37.5281 11.2964 -1.06183 2.32054 151.28 -2.12725 -89.9983 11.2964 -1.06183 -2.32036 -28.7076 -2.13818 89.9962 1.31489 1.30001 -9.53674e-007 -178.692 -2.92052 -178.972 12.6869 -1.77636e-015 -9.53674e-007 -5.26516e-007 1.07676e-006 -8.51738e-007 
-30.2956 7.66921 1.32774e-010 176.373 -22.8877 -88.9141 -2.22045e-016 0 1.90735e-006 -102.785 -3.41487 -84.6832 -7.25225 -1.74978 -4.68639e-007 -25.0345 -4.81229 -168.44 15.788 1.77636e-015 -1.90735e-006 13.5617 17.9725 -9.64361 16.0015 1.90735e-006 -9.53674e-007 36.5879 -21.4643 4.97245 16.1689 -3.8147e-006 -2.38419e-007 36.9133 -17.1769 -1.2924 6.47247 2.25597 1.20924 1.27042 -18.7234 1.58867 6.12663 8.45827 5.26996e-007 -88.9944 -0.0320435 -179.967 -6.32535 0.130776 -7.14137 -98.6928 -14.4939 -155.98 13.6591 1.90735e-006 -1.90735e-006 -69.6208 -4.77687e-006 1.72117e-005 9.07515 1.43051e-006 0 93.1899 -8.67154e-007 2.43955e-006 8.13856 0 -3.90798e-014 -73.6695 -7.8372 0.0759132 3.79737 6.30085 -8.07713e-008 89.3326 0.0415758 -0.0634376 0.838767 2.13163e-014 0 -1.66252e-006 9.14303e-006 -5.29144e-007 -6.61045 -3.35412 3.13463 -85.3123 -3.27725 -171.546 13.6591 -1.90735e-006 4.44089e-015 -100.968 -1.02879e-006 -1.93338e-005 9.07515 -1.90735e-006 -8.88178e-016 106.885 6.02165e-005 -4.48226e-006 8.13856 3.8147e-006 4.76837e-007 -51.4846 -7.39071 -10.7572 3.79738 6.30085 -1.03508e-006 93.9991 0.161514 0.0818184 0.838762 3.8147e-006 -4.76837e-007 -179.96 7.18508e-005 1.75126e-005 12.1684 -0.0102463 -0.00240564 -6.69144 16.4759 9.02836 -0.15749 5.09008 -6.54008 -92.7406 -0.0220269 -167.965 -0.157494 5.09007 6.54 87.255 -0.000412687 12.0139 8.2971 8.50414 -1.21167e-007 -91.651 -0.0227966 -179.978 13.2807 -0.0100126 -0.00156212 -0.389028 11.5195 -7.02314 12.4895 -6.66661 0.000221597 3.01418 0.00891459 -0.53707 -7.7679 -1.83303 -1.10485 175.576 -68.2611 110.44 13.2557 9.53674e-007 -4.76837e-007 54.5636 53.552 -86.3464 12.8897 3.01981e-014 0 -81.2548 -1.50861e-006 -8.96328e-006 11.2623 1.90735e-006 -2.86102e-006 145.929 57.111 -172.18 3.98016 -0.208656 -0.0949727 11.081 28.6123 19.9919 6.57561 -3.55271e-015 1.90735e-006 179.96 1.76905e-005 -9.53693e-006 -7.74577 -1.83273 1.25054 178.237 68.49 -86.6369 13.2557 7.99361e-015 1.19209e-007 9.84794 -85.3087 43.8363 12.8897 2.83122e-007 -8.88178e-016 -82.3144 -1.02168e-006 3.14077e-006 11.2623 3.55271e-015 3.55271e-015 -13.1149 8.29363 -7.38344 3.98015 -0.208662 0.0949781 19.7689 -58.1071 12.8524 6.57562 -1.90735e-006 3.8147e-006 -2.14837e-007 1.03632e-005 -2.45843e-007 4.1934 -0.00320053 -0.000843048 -1.89858 13.5603 -12.3466 4.17605 0.298254 -1.0941e-008 30.095 -2.50951 -8.73515 6.53259 -3.90693 -2.55362 133.025 18.1401 163.594 6.53259 -3.90695 2.55371 -46.9761 18.1112 -16.4184 1.75935 -4.1584 -4.45634 24.7931 -39.7306 142.462 1.75933 -4.1584 4.45616 -155.196 -39.7317 -37.5281 11.2964 -1.06183 2.32054 151.28 -2.12725 -89.9983 11.2964 -1.06183 -2.32036 -28.7075 -2.13818 89.9962 1.31489 1.30001 -9.68537e-007 -178.64 -2.89717 -179.001 12.6869 3.55271e-015 -9.53674e-007 -5.26516e-007 1.07676e-006 -8.51738e-007 
-30.2956 7.65827 7.12611e-010 176.372 -22.876 -88.9128 2.22045e-016 1.77636e-015 1.90735e-006 -100.252 -2.70096 -82.4118 -7.25225 -1.74978 -4.60369e-007 -20.0418 -5.08772 -172.653 15.788 0 -1.90735e-006 16.0969 17.6103 -6.16554 16.0015 1.90735e-006 -9.53674e-007 39.946 -21.0838 1.93194 16.1689 -3.8147e-006 -2.38419e-007 38.5714 -17.5907 -0.407203 6.40784 2.36111 1.34478 0.604732 -20.9589 -0.980025 6.12663 8.45827 5.84202e-007 -88.9944 -0.0320435 -179.967 -6.55391 0.281252 -7.03311 -99.64 -15.1641 -156.608 13.6591 1.90735e-006 -1.90735e-006 -71.9656 3.68481e-006 1.51536e-005 9.07515 1.43051e-006 3.55271e-015 94.5422 -2.63326e-006 3.04547e-006 8.13856 0 -8.88178e-014 -73.8444 -7.86567 -0.048551 3.79737 6.30085 -1.59727e-007 89.2864 0.0823909 -0.125608 0.838767 1.42109e-014 3.55271e-015 -1.66252e-006 9.14303e-006 -5.29144e-007 -6.38024 -3.60205 3.10176 -84.3992 -3.52031 -171.838 13.6591 -1.90735e-006 7.10543e-015 -98.3062 -1.19406e-006 -2.03895e-005 9.07515 -1.90735e-006 0 104.8 6.66106e-005 -4.01439e-006 8.13856 3.8147e-006 4.76836e-007 -51.5293 -7.32571 -10.9928 3.79738 6.30085 -1.11921e-006 94.1099 0.320054 0.161736 0.838762 3.8147e-006 -4.76837e-007 -179.96 7.185e-005 1.75132e-005 12.1684 -0.0102463 -0.00240564 -7.68947 19.9252 12.6441 -0.15749 5.09008 -6.54008 -92.7406 -0.0220419 -167.965 -0.157494 5.09007 6.54 87.255 -0.00058666 12.0139 8.2971 8.50414 -2.34265e-007 -91.651 -0.0227966 -179.978 13.2807 -0.0100126 -0.00156212 5.20253 15.1021 -0.432321 12.4895 -6.66661 0.000221815 3.95326 4.16935 -9.31383 -7.85431 -1.78793 0.223092 158.403 -62.2841 92.2383 13.2557 9.53674e-007 -4.76837e-007 29.2903 56.305 -57.0896 12.8897 2.30926e-014 -3.55271e-015 -81.1727 5.20603e-006 -1.59638e-005 11.2623 1.90735e-006 -2.86102e-006 159.634 61.3434 -179.69 3.98016 -0.208656 -0.0949727 11.0321 28.9818 21.2503 6.57561 0 1.90735e-006 179.96 1.76906e-005 -9.53788e-006 -7.47404 -1.61664 2.54171 -155.97 71.3973 -129.528 13.2557 1.24345e-014 1.19209e-007 80.1733 -67.2613 108.143 12.8897 2.83122e-007 -1.77636e-015 -109.895 1.98764e-006 6.96937e-006 11.2623 1.77636e-014 3.55271e-015 11.7102 20.169 -9.52065 3.98015 -0.208662 0.0949781 19.1076 -70.7296 4.76307 6.57562 -1.90735e-006 3.8147e-006 -2.14837e-007 1.03632e-005 -2.45843e-007 4.1934 -0.00320053 -0.000843048 4.21509 12.3938 -13.5068 4.17605 0.298254 -1.15163e-008 24.9357 -7.01896 -4.962 6.53259 -3.90693 -2.55362 133.025 18.1401 163.594 6.53259 -3.90695 2.55371 -46.9761 18.1112 -16.4184 1.75935 -4.1584 -4.45634 24.7931 -39.7306 142.462 1.75933 -4.1584 4.45616 -155.196 -39.7317 -37.5281 11.2964 -1.06183 2.32054 151.28 -2.12725 -89.9983 11.2964 -1.06183 -2.32036 -28.7076 -2.13818 89.9962 1.31489 1.30001 -9.76354e-007 -178.59 -2.87428 -179.029 12.6869 0 -9.53674e-007 -5.26516e-007 1.07676e-006 -8.51738e-007 
-30.2956 7.63995 1.00945e-009 176.372 -22.8582 -88.9123 4.44089e-016 -8.88178e-016 1.90735e-006 -97.7415 -1.88729 -80.2555 -7.25225 -1.74978 -4.52127e-007 -13.8792 -5.4631 -177.736 15.788 0 -1.90735e-006 19.227 17.0832 -1.99662 16.0015 1.90735e-006 -9.53674e-007 44.0642 -20.418 -1.6854 16.1689 -3.8147e-006 -2.38419e-007 40.2562 -17.9833 0.501212 6.33944 2.47202 1.46204 -0.0965564 -22.9767 -3.46033 6.12663 8.45827 6.32389e-007 -88.9944 -0.0320435 -179.967 -6.76534 0.404391 -6.91776 -100.582 -15.6575 -157.469 13.6591 1.90735e-006 -1.90735e-006 -74.1372 4.23241e-006 1.61176e-005 9.07515 1.43051e-006 3.55271e-015 95.9079 -2.43481e-006 3.50923e-006 8.13856 -7.10543e-015 -1.24345e-013 -74.0939 -7.97889 -0.142485 3.79737 6.30085 -2.35888e-007 89.1895 0.196689 -0.303609 0.838767 1.42109e-014 7.10543e-015 -1.66252e-006 9.14303e-006 -5.29144e-007 -6.1618 -3.83325 3.05739 -83.444 -3.81201 -172.236 13.6591 -1.90735e-006 4.44089e-015 -95.3902 8.31049e-006 -2.00084e-005 9.07515 -1.90735e-006 8.88178e-016 102.481 7.23365e-005 -3.58958e-006 8.13856 3.8147e-006 4.76835e-007 -51.5942 -7.23851 -11.3629 3.79738 6.30085 -1.20286e-006 94.2216 0.480321 0.242134 0.838762 3.8147e-006 -4.76837e-007 -179.96 7.18492e-005 1.75138e-005 12.1684 -0.0102463 -0.00240564 -8.92628 23.2279 16.2849 -0.15749 5.09008 -6.54008 -92.7406 -0.0220269 -167.965 -0.157494 5.09007 6.54 87.255 -0.000453559 12.0139 8.2971 8.50414 -3.46033e-007 -91.651 -0.0228119 -179.978 13.2807 -0.0100126 -0.00156212 10.323 19.0825 5.56018 12.4895 -6.66661 0.000221807 5.52143 7.92376 -17.8295 -7.74866 -1.64134 1.48299 148.242 -55.1234 81.1861 13.2557 9.53674e-007 -4.76837e-007 5.58528 52.0744 -28.1872 12.8897 3.21965e-014 3.55271e-015 -79.8347 -4.45072e-006 -1.75627e-005 11.2623 1.90735e-006 -2.86102e-006 174.073 62.4675 171.807 3.98016 -0.208656 -0.0949727 10.9603 29.4402 22.8302 6.57561 7.10542e-015 1.90735e-006 179.96 1.76903e-005 -9.5397e-006 -7.03412 -1.31648 3.70421 -129.902 69.7556 -171.998 13.2557 6.66134e-015 1.19209e-007 101.999 -42.9465 109.505 12.8897 2.83122e-007 -4.44089e-015 -126.436 -4.49756e-006 -3.67796e-007 11.2623 7.10542e-015 3.55271e-015 25.1109 17.9406 -3.10972 3.98015 -0.208662 0.0949781 7.02862 -82.2434 -13.8696 6.57562 -1.90735e-006 3.8147e-006 -2.14837e-007 1.03632e-005 -2.45843e-007 4.1934 -0.00320053 -0.000843048 10.0542 11.1198 -14.4613 4.17605 0.298254 -2.56968e-009 21.4639 -11.2223 -0.165964 6.53259 -3.90693 -2.55362 133.025 18.1401 163.594 6.53259 -3.90695 2.55371 -46.9761 18.1112 -16.4184 1.75935 -4.1584 -4.45634 24.7931 -39.7306 142.462 1.75933 -4.1584 4.45616 -155.196 -39.7317 -37.5281 11.2964 -1.06183 2.32054 151.28 -2.12725 -89.9983 11.2964 -1.06183 -2.32036 -28.7076 -2.13818 89.9962 1.31489 1.30001 -9.75803e-007 -178.539 -2.85119 -179.057 12.6869 -3.55271e-015 -9.53674e-007 -5.26516e-007 1.07676e-006 -8.51738e-007 
